<svg viewBox="0 0 800 600" xmlns="http://www.w3.org/2000/svg">
  <rect width="800" height="600" fill="#f3d6a0"/>
  <rect width="800" height="320" fill="#f6e3bd"/>
  <circle cx="640" cy="110" r="58" fill="#e3a23c"/>
  <path d="M0 320 L800 320 L800 600 L0 600 Z" fill="#33502f"/>
  <path d="M0 360 Q200 330 400 360 T800 360 V600 H0 Z" fill="#2c4527"/>
  <path d="M0 420 Q200 395 400 420 T800 420 V600 H0 Z" fill="#243a1f"/>
  <path d="M0 480 Q200 460 400 480 T800 480 V600 H0 Z" fill="#1f3322"/>
  <g stroke="#f6f0e1" strokeWidth="2" opacity="0.35">
    <path d="M0 360 H800" />
    <path d="M0 420 H800" />
    <path d="M0 480 H800" />
    <path d="M0 540 H800" />
  </g>
  <g fill="#e8c98a" opacity="0.9">
    <ellipse cx="120" cy="350" rx="3" ry="14"/>
    <ellipse cx="170" cy="358" rx="3" ry="14"/>
    <ellipse cx="230" cy="352" rx="3" ry="14"/>
    <ellipse cx="300" cy="360" rx="3" ry="14"/>
    <ellipse cx="380" cy="354" rx="3" ry="14"/>
    <ellipse cx="450" cy="362" rx="3" ry="14"/>
    <ellipse cx="520" cy="356" rx="3" ry="14"/>
    <ellipse cx="600" cy="360" rx="3" ry="14"/>
    <ellipse cx="670" cy="354" rx="3" ry="14"/>
    <ellipse cx="740" cy="362" rx="3" ry="14"/>
  </g>
</svg>
